<mxfile host="app.diagrams.net" modified="2021-03-14T18:44:30.109Z" agent="5.0 (Macintosh; Intel Mac OS X 10_15_6) AppleWebKit/537.36 (KHTML, like Gecko) Chrome/89.0.4389.82 Safari/537.36" etag="n1ZL5D9LAAIp2ZVSG17c" version="14.4.8" type="github">
  <diagram id="Dn_ONNjZbssanatG4VaI" name="Page-1">
    <mxGraphModel dx="1144" dy="1722" grid="1" gridSize="10" guides="1" tooltips="1" connect="1" arrows="1" fold="1" page="1" pageScale="1" pageWidth="850" pageHeight="1100" math="0" shadow="0">
      <root>
        <mxCell id="0" />
        <mxCell id="1" parent="0" />
        <mxCell id="IpuzUncIT1ydNjbxS-B2-1" value="Video Onboarding&lt;br&gt;UI" style="ellipse;whiteSpace=wrap;html=1;fillColor=#E6FFCC;" parent="1" vertex="1">
          <mxGeometry x="20" y="20" width="90" height="80" as="geometry" />
        </mxCell>
        <mxCell id="IpuzUncIT1ydNjbxS-B2-2" value="LB" style="rounded=1;whiteSpace=wrap;html=1;fillColor=#CCCCCC;" parent="1" vertex="1">
          <mxGeometry x="140" width="20" height="140" as="geometry" />
        </mxCell>
        <mxCell id="IpuzUncIT1ydNjbxS-B2-3" value="Asset Onboarding&lt;br&gt;Service" style="rounded=1;whiteSpace=wrap;html=1;fillColor=#CCE5FF;" parent="1" vertex="1">
          <mxGeometry x="210" y="20" width="120" height="60" as="geometry" />
        </mxCell>
        <mxCell id="IpuzUncIT1ydNjbxS-B2-4" value="AWS S3" style="dashed=0;outlineConnect=0;html=1;align=center;labelPosition=center;verticalLabelPosition=bottom;verticalAlign=top;shape=mxgraph.weblogos.aws_s3;fillColor=#CCE5FF;" parent="1" vertex="1">
          <mxGeometry x="570" y="26.200000000000003" width="61.6" height="47.6" as="geometry" />
        </mxCell>
        <mxCell id="IpuzUncIT1ydNjbxS-B2-5" value="Cassandra&lt;br&gt;Cluster" style="shape=document;whiteSpace=wrap;html=1;boundedLbl=1;fillColor=#CCFFFF;" parent="1" vertex="1">
          <mxGeometry x="380" y="-40" width="110" height="50" as="geometry" />
        </mxCell>
        <mxCell id="IpuzUncIT1ydNjbxS-B2-7" value="Asset Service" style="rounded=1;whiteSpace=wrap;html=1;fillColor=#CCE5FF;" parent="1" vertex="1">
          <mxGeometry x="400" y="230" width="130" height="60" as="geometry" />
        </mxCell>
        <mxCell id="IpuzUncIT1ydNjbxS-B2-20" value="" style="group" parent="1" vertex="1" connectable="0">
          <mxGeometry x="180" y="170" width="160" height="510" as="geometry" />
        </mxCell>
        <mxCell id="IpuzUncIT1ydNjbxS-B2-18" value="" style="rounded=1;whiteSpace=wrap;html=1;fillColor=#E6E6E6;" parent="IpuzUncIT1ydNjbxS-B2-20" vertex="1">
          <mxGeometry width="160" height="510" as="geometry" />
        </mxCell>
        <mxCell id="IpuzUncIT1ydNjbxS-B2-8" value="File Chunker" style="rounded=1;whiteSpace=wrap;html=1;fillColor=#CCE5FF;" parent="IpuzUncIT1ydNjbxS-B2-20" vertex="1">
          <mxGeometry x="20" y="40" width="120" height="60" as="geometry" />
        </mxCell>
        <mxCell id="IpuzUncIT1ydNjbxS-B2-9" value="Transcoders&lt;br&gt;(Codec Transformation)" style="rounded=1;whiteSpace=wrap;html=1;fillColor=#CCE5FF;" parent="IpuzUncIT1ydNjbxS-B2-20" vertex="1">
          <mxGeometry x="20" y="340" width="120" height="60" as="geometry" />
        </mxCell>
        <mxCell id="IpuzUncIT1ydNjbxS-B2-10" value="Uploader" style="rounded=1;whiteSpace=wrap;html=1;fillColor=#CCE5FF;" parent="IpuzUncIT1ydNjbxS-B2-20" vertex="1">
          <mxGeometry x="20" y="440" width="120" height="60" as="geometry" />
        </mxCell>
        <mxCell id="IpuzUncIT1ydNjbxS-B2-11" value="Content Filter&lt;br&gt;Piracy, Nudity,&amp;nbsp;" style="rounded=1;whiteSpace=wrap;html=1;fillColor=#CCE5FF;" parent="IpuzUncIT1ydNjbxS-B2-20" vertex="1">
          <mxGeometry x="20" y="140" width="120" height="60" as="geometry" />
        </mxCell>
        <mxCell id="IpuzUncIT1ydNjbxS-B2-12" value="Content Tagger&lt;br&gt;Tags, Thumbnails Generation" style="rounded=1;whiteSpace=wrap;html=1;fillColor=#CCE5FF;" parent="IpuzUncIT1ydNjbxS-B2-20" vertex="1">
          <mxGeometry x="20" y="240" width="120" height="60" as="geometry" />
        </mxCell>
        <mxCell id="IpuzUncIT1ydNjbxS-B2-14" value="" style="endArrow=none;html=1;entryX=0.5;entryY=1;entryDx=0;entryDy=0;exitX=0.5;exitY=0;exitDx=0;exitDy=0;" parent="IpuzUncIT1ydNjbxS-B2-20" source="IpuzUncIT1ydNjbxS-B2-12" target="IpuzUncIT1ydNjbxS-B2-11" edge="1">
          <mxGeometry width="50" height="50" relative="1" as="geometry">
            <mxPoint x="50" y="260" as="sourcePoint" />
            <mxPoint x="100" y="210" as="targetPoint" />
          </mxGeometry>
        </mxCell>
        <mxCell id="IpuzUncIT1ydNjbxS-B2-15" value="" style="endArrow=none;html=1;entryX=0.5;entryY=1;entryDx=0;entryDy=0;exitX=0.5;exitY=0;exitDx=0;exitDy=0;" parent="IpuzUncIT1ydNjbxS-B2-20" source="IpuzUncIT1ydNjbxS-B2-11" target="IpuzUncIT1ydNjbxS-B2-8" edge="1">
          <mxGeometry width="50" height="50" relative="1" as="geometry">
            <mxPoint x="50" y="260" as="sourcePoint" />
            <mxPoint x="100" y="210" as="targetPoint" />
          </mxGeometry>
        </mxCell>
        <mxCell id="IpuzUncIT1ydNjbxS-B2-16" value="" style="endArrow=none;html=1;entryX=0.5;entryY=1;entryDx=0;entryDy=0;exitX=0.5;exitY=0;exitDx=0;exitDy=0;" parent="IpuzUncIT1ydNjbxS-B2-20" source="IpuzUncIT1ydNjbxS-B2-10" target="IpuzUncIT1ydNjbxS-B2-9" edge="1">
          <mxGeometry width="50" height="50" relative="1" as="geometry">
            <mxPoint x="90" y="270" as="sourcePoint" />
            <mxPoint x="90" y="210" as="targetPoint" />
          </mxGeometry>
        </mxCell>
        <mxCell id="IpuzUncIT1ydNjbxS-B2-17" value="" style="endArrow=none;html=1;entryX=0.5;entryY=1;entryDx=0;entryDy=0;exitX=0.5;exitY=0;exitDx=0;exitDy=0;" parent="IpuzUncIT1ydNjbxS-B2-20" source="IpuzUncIT1ydNjbxS-B2-9" target="IpuzUncIT1ydNjbxS-B2-12" edge="1">
          <mxGeometry width="50" height="50" relative="1" as="geometry">
            <mxPoint x="100" y="280" as="sourcePoint" />
            <mxPoint x="100" y="220" as="targetPoint" />
          </mxGeometry>
        </mxCell>
        <mxCell id="IpuzUncIT1ydNjbxS-B2-19" value="Preprocessing&amp;nbsp;&lt;br&gt;Workflow" style="text;html=1;strokeColor=none;fillColor=none;align=center;verticalAlign=middle;whiteSpace=wrap;rounded=0;" parent="IpuzUncIT1ydNjbxS-B2-20" vertex="1">
          <mxGeometry x="60" y="10" width="40" height="20" as="geometry" />
        </mxCell>
        <mxCell id="IpuzUncIT1ydNjbxS-B2-21" value="KAFKA" style="shape=process;whiteSpace=wrap;html=1;backgroundOutline=1;fillColor=#CCCCCC;rotation=90;" parent="1" vertex="1">
          <mxGeometry x="775" y="255" width="210" height="45" as="geometry" />
        </mxCell>
        <mxCell id="IpuzUncIT1ydNjbxS-B2-22" value="CDN" style="rounded=1;whiteSpace=wrap;html=1;fillColor=#FF9999;" parent="1" vertex="1">
          <mxGeometry x="200" y="730" width="120" height="60" as="geometry" />
        </mxCell>
        <mxCell id="IpuzUncIT1ydNjbxS-B2-23" value="User Login" style="ellipse;whiteSpace=wrap;html=1;fillColor=#E6FFCC;" parent="1" vertex="1">
          <mxGeometry x="720" y="720" width="120" height="80" as="geometry" />
        </mxCell>
        <mxCell id="IpuzUncIT1ydNjbxS-B2-24" value="User Homepage" style="ellipse;whiteSpace=wrap;html=1;fillColor=#E6FFCC;" parent="1" vertex="1">
          <mxGeometry x="1260" y="720" width="120" height="80" as="geometry" />
        </mxCell>
        <mxCell id="IpuzUncIT1ydNjbxS-B2-25" value="User Search&lt;br&gt;Screen" style="ellipse;whiteSpace=wrap;html=1;fillColor=#E6FFCC;" parent="1" vertex="1">
          <mxGeometry x="1090" y="720" width="120" height="80" as="geometry" />
        </mxCell>
        <mxCell id="IpuzUncIT1ydNjbxS-B2-26" value="User Play&lt;br&gt;Video" style="ellipse;whiteSpace=wrap;html=1;fillColor=#E6FFCC;" parent="1" vertex="1">
          <mxGeometry x="425" y="730" width="120" height="80" as="geometry" />
        </mxCell>
        <mxCell id="IpuzUncIT1ydNjbxS-B2-27" value="User Service" style="rounded=1;whiteSpace=wrap;html=1;fillColor=#CCE5FF;" parent="1" vertex="1">
          <mxGeometry x="730" y="540" width="120" height="60" as="geometry" />
        </mxCell>
        <mxCell id="IpuzUncIT1ydNjbxS-B2-28" value="Analytics&amp;nbsp;&lt;br&gt;Service" style="rounded=1;whiteSpace=wrap;html=1;fillColor=#CCE5FF;" parent="1" vertex="1">
          <mxGeometry x="950" y="540" width="120" height="60" as="geometry" />
        </mxCell>
        <mxCell id="IpuzUncIT1ydNjbxS-B2-29" value="Search Service" style="rounded=1;whiteSpace=wrap;html=1;fillColor=#CCE5FF;" parent="1" vertex="1">
          <mxGeometry x="1090" y="470" width="120" height="60" as="geometry" />
        </mxCell>
        <mxCell id="IpuzUncIT1ydNjbxS-B2-30" value="Homepage Service" style="rounded=1;whiteSpace=wrap;html=1;fillColor=#CCE5FF;" parent="1" vertex="1">
          <mxGeometry x="1250" y="470" width="120" height="60" as="geometry" />
        </mxCell>
        <mxCell id="IpuzUncIT1ydNjbxS-B2-31" value="Elastic Search Cluster" style="shape=document;whiteSpace=wrap;html=1;boundedLbl=1;fillColor=#CCFFFF;" parent="1" vertex="1">
          <mxGeometry x="1165" y="240" width="110" height="50" as="geometry" />
        </mxCell>
        <mxCell id="IpuzUncIT1ydNjbxS-B2-32" value="Search Consumer" style="rounded=1;whiteSpace=wrap;html=1;fillColor=#CCE5FF;" parent="1" vertex="1">
          <mxGeometry x="985" y="235" width="120" height="60" as="geometry" />
        </mxCell>
        <mxCell id="IpuzUncIT1ydNjbxS-B2-33" value="Host Identifier" style="rounded=1;whiteSpace=wrap;html=1;fillColor=#CCE5FF;" parent="1" vertex="1">
          <mxGeometry x="390" y="540" width="120" height="60" as="geometry" />
        </mxCell>
        <mxCell id="IpuzUncIT1ydNjbxS-B2-34" value="Stream Statistics&lt;br&gt;Service" style="rounded=1;whiteSpace=wrap;html=1;fillColor=#CCE5FF;" parent="1" vertex="1">
          <mxGeometry x="550" y="540" width="120" height="60" as="geometry" />
        </mxCell>
        <mxCell id="IpuzUncIT1ydNjbxS-B2-35" value="Recommendation&lt;br&gt;Engine" style="rounded=1;whiteSpace=wrap;html=1;fillColor=#CCE5FF;" parent="1" vertex="1">
          <mxGeometry x="1270" y="80" width="120" height="60" as="geometry" />
        </mxCell>
        <mxCell id="IpuzUncIT1ydNjbxS-B2-36" value="Cassandra&lt;br&gt;Cluster" style="shape=document;whiteSpace=wrap;html=1;boundedLbl=1;fillColor=#CCFFFF;" parent="1" vertex="1">
          <mxGeometry x="1380" y="370" width="110" height="50" as="geometry" />
        </mxCell>
        <mxCell id="IpuzUncIT1ydNjbxS-B2-37" value="Local CDN" style="rounded=1;whiteSpace=wrap;html=1;fillColor=#FF9999;" parent="1" vertex="1">
          <mxGeometry x="840" y="830" width="120" height="60" as="geometry" />
        </mxCell>
        <mxCell id="IpuzUncIT1ydNjbxS-B2-38" value="CDN Writer&lt;br&gt;Service" style="rounded=1;whiteSpace=wrap;html=1;fillColor=#CCE5FF;" parent="1" vertex="1">
          <mxGeometry x="865" y="630" width="120" height="60" as="geometry" />
        </mxCell>
        <mxCell id="IpuzUncIT1ydNjbxS-B2-41" value="LB" style="rounded=1;whiteSpace=wrap;html=1;fillColor=#CCCCCC;rotation=90;" parent="1" vertex="1">
          <mxGeometry x="1230" y="560" width="20" height="270" as="geometry" />
        </mxCell>
        <mxCell id="IpuzUncIT1ydNjbxS-B2-42" value="LB" style="rounded=1;whiteSpace=wrap;html=1;fillColor=#CCCCCC;rotation=90;" parent="1" vertex="1">
          <mxGeometry x="620" y="485" width="20" height="420" as="geometry" />
        </mxCell>
        <mxCell id="IpuzUncIT1ydNjbxS-B2-43" value="MySQL&lt;br&gt;Cluster" style="shape=cylinder3;whiteSpace=wrap;html=1;boundedLbl=1;backgroundOutline=1;size=15;fillColor=#FF9999;" parent="1" vertex="1">
          <mxGeometry x="730" y="450" width="50" height="60" as="geometry" />
        </mxCell>
        <mxCell id="IpuzUncIT1ydNjbxS-B2-44" value="" style="aspect=fixed;html=1;points=[];align=center;image;fontSize=12;image=img/lib/mscae/Cache_Redis_Product.svg;fillColor=#FF9999;" parent="1" vertex="1">
          <mxGeometry x="800" y="480.6" width="35" height="29.4" as="geometry" />
        </mxCell>
        <mxCell id="IpuzUncIT1ydNjbxS-B2-45" value="Spark Streaming&lt;br&gt;Cluster" style="rounded=1;whiteSpace=wrap;html=1;fillColor=#FF9999;" parent="1" vertex="1">
          <mxGeometry x="920" y="73.80000000000001" width="120" height="60" as="geometry" />
        </mxCell>
        <mxCell id="IpuzUncIT1ydNjbxS-B2-46" value="Hadoop Cluster" style="rounded=1;whiteSpace=wrap;html=1;fillColor=#FF9999;" parent="1" vertex="1">
          <mxGeometry x="1100" y="73.80000000000001" width="120" height="60" as="geometry" />
        </mxCell>
      </root>
    </mxGraphModel>
  </diagram>
</mxfile>
